<svg width="40" height="38" viewBox="0 0 40 38" fill="none" xmlns="http://www.w3.org/2000/svg">
<g clip-path="url(#clip0_493_1420)">
<path d="M22.2316 0.0361328V5.66452C22.2316 7.13583 23.1703 8.42955 24.6239 8.96231C28.844 10.5071 31.6794 14.5544 31.6794 19.0342C31.6794 23.514 28.844 27.5623 24.6239 29.1061C23.1703 29.6379 22.2316 30.9326 22.2316 32.4039V38.0323C32.2172 37.364 40.0163 29.0498 40.0163 19.0342C40.0163 9.01864 32.2182 0.704474 22.2316 0.0361328Z" fill="url(#paint0_radial_493_1420)"/>
<path d="M17.7895 0.0361328C7.80382 0.704474 0.0057373 9.01864 0.0057373 19.0342C0.0057373 29.0498 7.80382 37.364 17.7895 38.0323V32.4049C17.7895 30.9336 16.8507 29.6389 15.3971 29.1071C11.177 27.5623 8.34162 23.515 8.34162 19.0352C8.34162 14.5554 11.177 10.5071 15.3971 8.96327C16.8507 8.43146 17.7895 7.13679 17.7895 5.66548V0.0361328Z" fill="url(#paint1_radial_493_1420)"/>
</g>
<defs>
<radialGradient id="paint0_radial_493_1420" cx="0" cy="0" r="1" gradientUnits="userSpaceOnUse" gradientTransform="translate(46.9975 -28.6873) scale(65.6701 65.5216)">
<stop stop-color="#00A3FF"/>
<stop offset="1" stop-color="#002AEF"/>
</radialGradient>
<radialGradient id="paint1_radial_493_1420" cx="0" cy="0" r="1" gradientUnits="userSpaceOnUse" gradientTransform="translate(46.9975 -28.6873) scale(65.6701 65.5216)">
<stop stop-color="#00A3FF"/>
<stop offset="1" stop-color="#002AEF"/>
</radialGradient>
<clipPath id="clip0_493_1420">
<rect width="40" height="38" fill="white"/>
</clipPath>
</defs>
</svg>
