<svg width="96" height="104" viewBox="0 0 96 104" fill="none" xmlns="http://www.w3.org/2000/svg">
<g filter="url(#filter0_d_510_104)">
<path fill-rule="evenodd" clip-rule="evenodd" d="M92 27.996C92 26.5434 91.2409 25.1985 90.0029 24.458L50.077 0.57456C48.7963 -0.19152 47.2037 -0.191521 45.923 0.57456L5.99711 24.458C4.7594 25.1985 4 26.5434 4 27.996V75.9503C4 77.4029 4.7594 78.7478 5.99711 79.4883L33.273 95.8042L19.1406 55.2181C16.716 49.2292 17.1674 49.4081 20.3629 54.3956L45.2147 93.0537C46.9375 95.1536 47.9126 95.6175 49.6962 93.0537L76.1776 52.7504C79.3842 48.1473 79.6723 48.4596 77.8072 53.573L62.4005 96L90.0029 79.4883C91.2409 78.7478 92 77.4029 92 75.9503L92 27.996ZM65.5089 34.3627C68.5874 36.4979 70.9863 38.1616 69.5954 43.3368C68.1499 48.3427 67.3463 51.1357 65.9287 56.0858C65.4328 58.5979 64.487 59.7037 62.262 61.4321C58.1997 63.4302 55.9662 64.6802 52.0768 67.1897C49.1784 68.8755 47.4784 68.8033 44.3361 67.1897C40.9327 64.9093 38.9727 63.7345 35.3731 61.8434C33.3671 60.7515 32.5818 59.6459 31.7065 56.9083C30.4896 52.8222 29.7677 50.6951 28.4472 47.0381C25.1836 39.2083 26.6112 36.9809 31.7065 34.7003L43.9287 27.7089C46.3555 26.5428 47.2386 24.3317 48.4102 19.0725C48.9726 21.405 49.78 22.3966 52.0768 23.5964C59.2794 27.2587 61.9319 29.1809 62.6694 32.2328C63.6216 33.0537 64.5952 33.7289 65.5089 34.3627Z" fill="#036BFF"/>
</g>
<defs>
<filter id="filter0_d_510_104" x="0" y="0" width="96" height="104" filterUnits="userSpaceOnUse" color-interpolation-filters="sRGB">
<feFlood flood-opacity="0" result="BackgroundImageFix"/>
<feColorMatrix in="SourceAlpha" type="matrix" values="0 0 0 0 0 0 0 0 0 0 0 0 0 0 0 0 0 0 127 0" result="hardAlpha"/>
<feOffset dy="4"/>
<feGaussianBlur stdDeviation="2"/>
<feComposite in2="hardAlpha" operator="out"/>
<feColorMatrix type="matrix" values="0 0 0 0 0 0 0 0 0 0 0 0 0 0 0 0 0 0 0.25 0"/>
<feBlend mode="normal" in2="BackgroundImageFix" result="effect1_dropShadow_510_104"/>
<feBlend mode="normal" in="SourceGraphic" in2="effect1_dropShadow_510_104" result="shape"/>
</filter>
</defs>
</svg>
